<svg xmlns="http://www.w3.org/2000/svg" viewBox="0 0 180 180" shape-rendering="crispEdges" role="img" aria-label="Stellaroid Earn">
  <title>Stellaroid Earn</title>
  <defs>
    <linearGradient id="bg" x1="0" y1="0" x2="1" y2="1">
      <stop offset="0%" stop-color="#F59E0B"/>
      <stop offset="100%" stop-color="#B45309"/>
    </linearGradient>
    <style>
      .sh{fill:#78350F}.md{fill:#B45309}.hi{fill:#FBBF24}.gl{fill:#FEF3C7}
    </style>
  </defs>
  <rect width="180" height="180" rx="36" fill="url(#bg)"/>
  <g transform="translate(33, 33) scale(1.95)">
    <rect class="sh" x="20" y="4" width="4" height="4"/><rect class="sh" x="24" y="4" width="4" height="4"/><rect class="sh" x="28" y="4" width="4" height="4"/><rect class="sh" x="32" y="4" width="4" height="4"/><rect class="sh" x="36" y="4" width="4" height="4"/><rect class="sh" x="40" y="4" width="4" height="4"/>
    <rect class="sh" x="12" y="8" width="4" height="4"/><rect class="sh" x="16" y="8" width="4" height="4"/><rect class="md" x="20" y="8" width="4" height="4"/><rect class="md" x="24" y="8" width="4" height="4"/><rect class="md" x="28" y="8" width="4" height="4"/><rect class="md" x="32" y="8" width="4" height="4"/><rect class="md" x="36" y="8" width="4" height="4"/><rect class="md" x="40" y="8" width="4" height="4"/><rect class="sh" x="44" y="8" width="4" height="4"/><rect class="sh" x="48" y="8" width="4" height="4"/>
    <rect class="sh" x="8" y="12" width="4" height="4"/><rect class="md" x="12" y="12" width="4" height="4"/><rect class="hi" x="16" y="12" width="4" height="4"/><rect class="hi" x="20" y="12" width="4" height="4"/><rect class="hi" x="24" y="12" width="4" height="4"/><rect class="gl" x="28" y="12" width="4" height="4"/><rect class="hi" x="32" y="12" width="4" height="4"/><rect class="hi" x="36" y="12" width="4" height="4"/><rect class="hi" x="40" y="12" width="4" height="4"/><rect class="hi" x="44" y="12" width="4" height="4"/><rect class="md" x="48" y="12" width="4" height="4"/><rect class="sh" x="52" y="12" width="4" height="4"/>
    <rect class="sh" x="8" y="16" width="4" height="4"/><rect class="md" x="12" y="16" width="4" height="4"/><rect class="hi" x="16" y="16" width="4" height="4"/><rect class="sh" x="20" y="16" width="4" height="4"/><rect class="sh" x="24" y="16" width="4" height="4"/><rect class="sh" x="28" y="16" width="4" height="4"/><rect class="sh" x="32" y="16" width="4" height="4"/><rect class="sh" x="36" y="16" width="4" height="4"/><rect class="hi" x="40" y="16" width="4" height="4"/><rect class="hi" x="44" y="16" width="4" height="4"/><rect class="md" x="48" y="16" width="4" height="4"/><rect class="sh" x="52" y="16" width="4" height="4"/>
    <rect class="sh" x="4" y="20" width="4" height="4"/><rect class="md" x="8" y="20" width="4" height="4"/><rect class="hi" x="12" y="20" width="4" height="4"/><rect class="hi" x="16" y="20" width="4" height="4"/><rect class="sh" x="20" y="20" width="4" height="4"/><rect class="hi" x="24" y="20" width="4" height="4"/><rect class="hi" x="28" y="20" width="4" height="4"/><rect class="hi" x="32" y="20" width="4" height="4"/><rect class="hi" x="36" y="20" width="4" height="4"/><rect class="hi" x="40" y="20" width="4" height="4"/><rect class="hi" x="44" y="20" width="4" height="4"/><rect class="md" x="48" y="20" width="4" height="4"/><rect class="md" x="52" y="20" width="4" height="4"/><rect class="sh" x="56" y="20" width="4" height="4"/>
    <rect class="sh" x="4" y="24" width="4" height="4"/><rect class="md" x="8" y="24" width="4" height="4"/><rect class="hi" x="12" y="24" width="4" height="4"/><rect class="hi" x="16" y="24" width="4" height="4"/><rect class="sh" x="20" y="24" width="4" height="4"/><rect class="hi" x="24" y="24" width="4" height="4"/><rect class="hi" x="28" y="24" width="4" height="4"/><rect class="hi" x="32" y="24" width="4" height="4"/><rect class="hi" x="36" y="24" width="4" height="4"/><rect class="hi" x="40" y="24" width="4" height="4"/><rect class="hi" x="44" y="24" width="4" height="4"/><rect class="md" x="48" y="24" width="4" height="4"/><rect class="md" x="52" y="24" width="4" height="4"/><rect class="sh" x="56" y="24" width="4" height="4"/>
    <rect class="sh" x="4" y="28" width="4" height="4"/><rect class="md" x="8" y="28" width="4" height="4"/><rect class="hi" x="12" y="28" width="4" height="4"/><rect class="hi" x="16" y="28" width="4" height="4"/><rect class="sh" x="20" y="28" width="4" height="4"/><rect class="sh" x="24" y="28" width="4" height="4"/><rect class="sh" x="28" y="28" width="4" height="4"/><rect class="sh" x="32" y="28" width="4" height="4"/><rect class="sh" x="36" y="28" width="4" height="4"/><rect class="hi" x="40" y="28" width="4" height="4"/><rect class="hi" x="44" y="28" width="4" height="4"/><rect class="md" x="48" y="28" width="4" height="4"/><rect class="md" x="52" y="28" width="4" height="4"/><rect class="sh" x="56" y="28" width="4" height="4"/>
    <rect class="sh" x="4" y="32" width="4" height="4"/><rect class="md" x="8" y="32" width="4" height="4"/><rect class="hi" x="12" y="32" width="4" height="4"/><rect class="hi" x="16" y="32" width="4" height="4"/><rect class="hi" x="20" y="32" width="4" height="4"/><rect class="hi" x="24" y="32" width="4" height="4"/><rect class="hi" x="28" y="32" width="4" height="4"/><rect class="hi" x="32" y="32" width="4" height="4"/><rect class="sh" x="36" y="32" width="4" height="4"/><rect class="hi" x="40" y="32" width="4" height="4"/><rect class="hi" x="44" y="32" width="4" height="4"/><rect class="md" x="48" y="32" width="4" height="4"/><rect class="md" x="52" y="32" width="4" height="4"/><rect class="sh" x="56" y="32" width="4" height="4"/>
    <rect class="sh" x="4" y="36" width="4" height="4"/><rect class="md" x="8" y="36" width="4" height="4"/><rect class="hi" x="12" y="36" width="4" height="4"/><rect class="hi" x="16" y="36" width="4" height="4"/><rect class="hi" x="20" y="36" width="4" height="4"/><rect class="hi" x="24" y="36" width="4" height="4"/><rect class="hi" x="28" y="36" width="4" height="4"/><rect class="hi" x="32" y="36" width="4" height="4"/><rect class="sh" x="36" y="36" width="4" height="4"/><rect class="hi" x="40" y="36" width="4" height="4"/><rect class="hi" x="44" y="36" width="4" height="4"/><rect class="md" x="48" y="36" width="4" height="4"/><rect class="md" x="52" y="36" width="4" height="4"/><rect class="sh" x="56" y="36" width="4" height="4"/>
    <rect class="sh" x="8" y="40" width="4" height="4"/><rect class="md" x="12" y="40" width="4" height="4"/><rect class="hi" x="16" y="40" width="4" height="4"/><rect class="sh" x="20" y="40" width="4" height="4"/><rect class="sh" x="24" y="40" width="4" height="4"/><rect class="sh" x="28" y="40" width="4" height="4"/><rect class="sh" x="32" y="40" width="4" height="4"/><rect class="sh" x="36" y="40" width="4" height="4"/><rect class="hi" x="40" y="40" width="4" height="4"/><rect class="hi" x="44" y="40" width="4" height="4"/><rect class="md" x="48" y="40" width="4" height="4"/><rect class="md" x="52" y="40" width="4" height="4"/><rect class="sh" x="56" y="40" width="4" height="4"/>
    <rect class="sh" x="8" y="44" width="4" height="4"/><rect class="md" x="12" y="44" width="4" height="4"/><rect class="hi" x="16" y="44" width="4" height="4"/><rect class="hi" x="20" y="44" width="4" height="4"/><rect class="hi" x="24" y="44" width="4" height="4"/><rect class="hi" x="28" y="44" width="4" height="4"/><rect class="hi" x="32" y="44" width="4" height="4"/><rect class="hi" x="36" y="44" width="4" height="4"/><rect class="hi" x="40" y="44" width="4" height="4"/><rect class="hi" x="44" y="44" width="4" height="4"/><rect class="md" x="48" y="44" width="4" height="4"/><rect class="sh" x="52" y="44" width="4" height="4"/>
    <rect class="sh" x="8" y="48" width="4" height="4"/><rect class="sh" x="12" y="48" width="4" height="4"/><rect class="md" x="16" y="48" width="4" height="4"/><rect class="md" x="20" y="48" width="4" height="4"/><rect class="md" x="24" y="48" width="4" height="4"/><rect class="md" x="28" y="48" width="4" height="4"/><rect class="md" x="32" y="48" width="4" height="4"/><rect class="md" x="36" y="48" width="4" height="4"/><rect class="md" x="40" y="48" width="4" height="4"/><rect class="md" x="44" y="48" width="4" height="4"/><rect class="sh" x="48" y="48" width="4" height="4"/><rect class="sh" x="52" y="48" width="4" height="4"/>
    <rect class="sh" x="12" y="52" width="4" height="4"/><rect class="sh" x="16" y="52" width="4" height="4"/><rect class="sh" x="20" y="52" width="4" height="4"/><rect class="sh" x="24" y="52" width="4" height="4"/><rect class="sh" x="28" y="52" width="4" height="4"/><rect class="sh" x="32" y="52" width="4" height="4"/><rect class="sh" x="36" y="52" width="4" height="4"/><rect class="sh" x="40" y="52" width="4" height="4"/><rect class="sh" x="44" y="52" width="4" height="4"/><rect class="sh" x="48" y="52" width="4" height="4"/>
  </g>
</svg>
