<svg xmlns="http://www.w3.org/2000/svg" viewBox="0 0 1280 640" role="img" aria-label="Stellaroid Earn — On-chain credential registry on Stellar">
  <defs>
    <linearGradient id="bg" x1="0" y1="0" x2="1" y2="1">
      <stop offset="0%" stop-color="#0F172A"/>
      <stop offset="55%" stop-color="#1E293B"/>
      <stop offset="100%" stop-color="#1a1f3d"/>
    </linearGradient>
    <linearGradient id="accent" x1="0" y1="0" x2="1" y2="0">
      <stop offset="0%" stop-color="#F59E0B"/>
      <stop offset="100%" stop-color="#8B5CF6"/>
    </linearGradient>
    <linearGradient id="accentV" x1="0" y1="0" x2="0" y2="1">
      <stop offset="0%" stop-color="#F59E0B"/>
      <stop offset="100%" stop-color="#8B5CF6"/>
    </linearGradient>
    <style>
      .sh{fill:#78350F}.md{fill:#B45309}.hi{fill:#FBBF24}.gl{fill:#FEF3C7}
    </style>
  </defs>

  <!-- Background -->
  <rect width="1280" height="640" fill="url(#bg)"/>

  <!-- Dot grid texture -->
  <g fill="#334155" opacity="0.35">
    <circle cx="160" cy="100" r="1.5"/><circle cx="320" cy="100" r="1.5"/><circle cx="480" cy="100" r="1.5"/>
    <circle cx="640" cy="100" r="1.5"/><circle cx="800" cy="100" r="1.5"/><circle cx="960" cy="100" r="1.5"/><circle cx="1120" cy="100" r="1.5"/>
    <circle cx="240" cy="200" r="1.5"/><circle cx="400" cy="200" r="1.5"/><circle cx="560" cy="200" r="1.5"/>
    <circle cx="720" cy="200" r="1.5"/><circle cx="880" cy="200" r="1.5"/><circle cx="1040" cy="200" r="1.5"/>
    <circle cx="160" cy="440" r="1.5"/><circle cx="320" cy="440" r="1.5"/><circle cx="480" cy="440" r="1.5"/>
    <circle cx="640" cy="440" r="1.5"/><circle cx="800" cy="440" r="1.5"/><circle cx="960" cy="440" r="1.5"/><circle cx="1120" cy="440" r="1.5"/>
    <circle cx="240" cy="540" r="1.5"/><circle cx="400" cy="540" r="1.5"/><circle cx="560" cy="540" r="1.5"/>
    <circle cx="720" cy="540" r="1.5"/><circle cx="880" cy="540" r="1.5"/><circle cx="1040" cy="540" r="1.5"/>
  </g>

  <!-- Edge ribbons -->
  <rect x="0" y="0" width="1280" height="4" fill="url(#accent)"/>
  <rect x="0" y="636" width="1280" height="4" fill="url(#accent)"/>
  <rect x="0" y="0" width="4" height="640" fill="url(#accentV)"/>
  <rect x="1276" y="0" width="4" height="640" fill="url(#accentV)"/>

  <!-- Inset frame -->
  <rect x="20" y="20" width="1240" height="600" fill="none" stroke="#334155" stroke-width="1"/>

  <!-- Corner accents -->
  <rect x="18" y="18" width="6" height="6" fill="#F59E0B"/>
  <rect x="1256" y="18" width="6" height="6" fill="#8B5CF6"/>
  <rect x="18" y="616" width="6" height="6" fill="#8B5CF6"/>
  <rect x="1256" y="616" width="6" height="6" fill="#F59E0B"/>

  <!-- Pixel coin logo (centered, scale 4x) -->
  <g transform="translate(508, 80) scale(4)" shape-rendering="crispEdges">
    <rect class="sh" x="20" y="4" width="4" height="4"/><rect class="sh" x="24" y="4" width="4" height="4"/><rect class="sh" x="28" y="4" width="4" height="4"/><rect class="sh" x="32" y="4" width="4" height="4"/><rect class="sh" x="36" y="4" width="4" height="4"/><rect class="sh" x="40" y="4" width="4" height="4"/>
    <rect class="sh" x="12" y="8" width="4" height="4"/><rect class="sh" x="16" y="8" width="4" height="4"/><rect class="md" x="20" y="8" width="4" height="4"/><rect class="md" x="24" y="8" width="4" height="4"/><rect class="md" x="28" y="8" width="4" height="4"/><rect class="md" x="32" y="8" width="4" height="4"/><rect class="md" x="36" y="8" width="4" height="4"/><rect class="md" x="40" y="8" width="4" height="4"/><rect class="sh" x="44" y="8" width="4" height="4"/><rect class="sh" x="48" y="8" width="4" height="4"/>
    <rect class="sh" x="8" y="12" width="4" height="4"/><rect class="md" x="12" y="12" width="4" height="4"/><rect class="hi" x="16" y="12" width="4" height="4"/><rect class="hi" x="20" y="12" width="4" height="4"/><rect class="hi" x="24" y="12" width="4" height="4"/><rect class="gl" x="28" y="12" width="4" height="4"/><rect class="hi" x="32" y="12" width="4" height="4"/><rect class="hi" x="36" y="12" width="4" height="4"/><rect class="hi" x="40" y="12" width="4" height="4"/><rect class="hi" x="44" y="12" width="4" height="4"/><rect class="md" x="48" y="12" width="4" height="4"/><rect class="sh" x="52" y="12" width="4" height="4"/>
    <rect class="sh" x="8" y="16" width="4" height="4"/><rect class="md" x="12" y="16" width="4" height="4"/><rect class="hi" x="16" y="16" width="4" height="4"/><rect class="sh" x="20" y="16" width="4" height="4"/><rect class="sh" x="24" y="16" width="4" height="4"/><rect class="sh" x="28" y="16" width="4" height="4"/><rect class="sh" x="32" y="16" width="4" height="4"/><rect class="sh" x="36" y="16" width="4" height="4"/><rect class="hi" x="40" y="16" width="4" height="4"/><rect class="hi" x="44" y="16" width="4" height="4"/><rect class="md" x="48" y="16" width="4" height="4"/><rect class="sh" x="52" y="16" width="4" height="4"/>
    <rect class="sh" x="4" y="20" width="4" height="4"/><rect class="md" x="8" y="20" width="4" height="4"/><rect class="hi" x="12" y="20" width="4" height="4"/><rect class="hi" x="16" y="20" width="4" height="4"/><rect class="sh" x="20" y="20" width="4" height="4"/><rect class="hi" x="24" y="20" width="4" height="4"/><rect class="hi" x="28" y="20" width="4" height="4"/><rect class="hi" x="32" y="20" width="4" height="4"/><rect class="hi" x="36" y="20" width="4" height="4"/><rect class="hi" x="40" y="20" width="4" height="4"/><rect class="hi" x="44" y="20" width="4" height="4"/><rect class="md" x="48" y="20" width="4" height="4"/><rect class="md" x="52" y="20" width="4" height="4"/><rect class="sh" x="56" y="20" width="4" height="4"/>
    <rect class="sh" x="4" y="24" width="4" height="4"/><rect class="md" x="8" y="24" width="4" height="4"/><rect class="hi" x="12" y="24" width="4" height="4"/><rect class="hi" x="16" y="24" width="4" height="4"/><rect class="sh" x="20" y="24" width="4" height="4"/><rect class="hi" x="24" y="24" width="4" height="4"/><rect class="hi" x="28" y="24" width="4" height="4"/><rect class="hi" x="32" y="24" width="4" height="4"/><rect class="hi" x="36" y="24" width="4" height="4"/><rect class="hi" x="40" y="24" width="4" height="4"/><rect class="hi" x="44" y="24" width="4" height="4"/><rect class="md" x="48" y="24" width="4" height="4"/><rect class="md" x="52" y="24" width="4" height="4"/><rect class="sh" x="56" y="24" width="4" height="4"/>
    <rect class="sh" x="4" y="28" width="4" height="4"/><rect class="md" x="8" y="28" width="4" height="4"/><rect class="hi" x="12" y="28" width="4" height="4"/><rect class="hi" x="16" y="28" width="4" height="4"/><rect class="sh" x="20" y="28" width="4" height="4"/><rect class="sh" x="24" y="28" width="4" height="4"/><rect class="sh" x="28" y="28" width="4" height="4"/><rect class="sh" x="32" y="28" width="4" height="4"/><rect class="sh" x="36" y="28" width="4" height="4"/><rect class="hi" x="40" y="28" width="4" height="4"/><rect class="hi" x="44" y="28" width="4" height="4"/><rect class="md" x="48" y="28" width="4" height="4"/><rect class="md" x="52" y="28" width="4" height="4"/><rect class="sh" x="56" y="28" width="4" height="4"/>
    <rect class="sh" x="4" y="32" width="4" height="4"/><rect class="md" x="8" y="32" width="4" height="4"/><rect class="hi" x="12" y="32" width="4" height="4"/><rect class="hi" x="16" y="32" width="4" height="4"/><rect class="hi" x="20" y="32" width="4" height="4"/><rect class="hi" x="24" y="32" width="4" height="4"/><rect class="hi" x="28" y="32" width="4" height="4"/><rect class="hi" x="32" y="32" width="4" height="4"/><rect class="sh" x="36" y="32" width="4" height="4"/><rect class="hi" x="40" y="32" width="4" height="4"/><rect class="hi" x="44" y="32" width="4" height="4"/><rect class="md" x="48" y="32" width="4" height="4"/><rect class="md" x="52" y="32" width="4" height="4"/><rect class="sh" x="56" y="32" width="4" height="4"/>
    <rect class="sh" x="4" y="36" width="4" height="4"/><rect class="md" x="8" y="36" width="4" height="4"/><rect class="hi" x="12" y="36" width="4" height="4"/><rect class="hi" x="16" y="36" width="4" height="4"/><rect class="hi" x="20" y="36" width="4" height="4"/><rect class="hi" x="24" y="36" width="4" height="4"/><rect class="hi" x="28" y="36" width="4" height="4"/><rect class="hi" x="32" y="36" width="4" height="4"/><rect class="sh" x="36" y="36" width="4" height="4"/><rect class="hi" x="40" y="36" width="4" height="4"/><rect class="hi" x="44" y="36" width="4" height="4"/><rect class="md" x="48" y="36" width="4" height="4"/><rect class="md" x="52" y="36" width="4" height="4"/><rect class="sh" x="56" y="36" width="4" height="4"/>
    <rect class="sh" x="8" y="40" width="4" height="4"/><rect class="md" x="12" y="40" width="4" height="4"/><rect class="hi" x="16" y="40" width="4" height="4"/><rect class="sh" x="20" y="40" width="4" height="4"/><rect class="sh" x="24" y="40" width="4" height="4"/><rect class="sh" x="28" y="40" width="4" height="4"/><rect class="sh" x="32" y="40" width="4" height="4"/><rect class="sh" x="36" y="40" width="4" height="4"/><rect class="hi" x="40" y="40" width="4" height="4"/><rect class="hi" x="44" y="40" width="4" height="4"/><rect class="md" x="48" y="40" width="4" height="4"/><rect class="md" x="52" y="40" width="4" height="4"/><rect class="sh" x="56" y="40" width="4" height="4"/>
    <rect class="sh" x="8" y="44" width="4" height="4"/><rect class="md" x="12" y="44" width="4" height="4"/><rect class="hi" x="16" y="44" width="4" height="4"/><rect class="hi" x="20" y="44" width="4" height="4"/><rect class="hi" x="24" y="44" width="4" height="4"/><rect class="hi" x="28" y="44" width="4" height="4"/><rect class="hi" x="32" y="44" width="4" height="4"/><rect class="hi" x="36" y="44" width="4" height="4"/><rect class="hi" x="40" y="44" width="4" height="4"/><rect class="hi" x="44" y="44" width="4" height="4"/><rect class="md" x="48" y="44" width="4" height="4"/><rect class="sh" x="52" y="44" width="4" height="4"/>
    <rect class="sh" x="8" y="48" width="4" height="4"/><rect class="sh" x="12" y="48" width="4" height="4"/><rect class="md" x="16" y="48" width="4" height="4"/><rect class="md" x="20" y="48" width="4" height="4"/><rect class="md" x="24" y="48" width="4" height="4"/><rect class="md" x="28" y="48" width="4" height="4"/><rect class="md" x="32" y="48" width="4" height="4"/><rect class="md" x="36" y="48" width="4" height="4"/><rect class="md" x="40" y="48" width="4" height="4"/><rect class="md" x="44" y="48" width="4" height="4"/><rect class="sh" x="48" y="48" width="4" height="4"/><rect class="sh" x="52" y="48" width="4" height="4"/>
    <rect class="sh" x="12" y="52" width="4" height="4"/><rect class="sh" x="16" y="52" width="4" height="4"/><rect class="sh" x="20" y="52" width="4" height="4"/><rect class="sh" x="24" y="52" width="4" height="4"/><rect class="sh" x="28" y="52" width="4" height="4"/><rect class="sh" x="32" y="52" width="4" height="4"/><rect class="sh" x="36" y="52" width="4" height="4"/><rect class="sh" x="40" y="52" width="4" height="4"/><rect class="sh" x="44" y="52" width="4" height="4"/><rect class="sh" x="48" y="52" width="4" height="4"/>
  </g>

  <!-- Title -->
  <text x="640" y="370" text-anchor="middle"
    font-family="'Orbitron', 'Segoe UI', system-ui, sans-serif"
    font-size="64" font-weight="700" letter-spacing="-1"
    fill="#F8FAFC">Stellaroid Earn</text>

  <!-- Divider -->
  <rect x="440" y="390" width="400" height="1" fill="#334155"/>

  <!-- Subtitle -->
  <text x="640" y="430" text-anchor="middle"
    font-family="'Exo 2', 'Segoe UI', system-ui, sans-serif"
    font-size="26" font-weight="500"
    fill="#94A3B8">On-chain credential registry on Stellar</text>

  <!-- Value prop -->
  <text x="640" y="470" text-anchor="middle"
    font-family="'Exo 2', 'Segoe UI', system-ui, sans-serif"
    font-size="20" font-weight="400"
    fill="#64748B">Issue, verify, and pay graduates — Soroban + Freighter, end-to-end.</text>

  <!-- Tag strip -->
  <text x="640" y="540" text-anchor="middle"
    font-family="'JetBrains Mono', 'Cascadia Code', ui-monospace, monospace"
    font-size="16" font-weight="600" letter-spacing="3"
    fill="#F59E0B">STELLAR TESTNET  &#183;  SOROBAN SDK 22  &#183;  FREIGHTER  &#183;  NEXT.JS 15</text>

  <!-- Live badge -->
  <circle cx="1220" cy="55" r="6" fill="#10B981"/>
  <text x="1200" y="60" text-anchor="end"
    font-family="'JetBrains Mono', ui-monospace, monospace"
    font-size="13" font-weight="600" letter-spacing="1"
    fill="#10B981">LIVE</text>

  <!-- Hash motif (bottom) -->
  <text x="640" y="600" text-anchor="middle"
    font-family="'JetBrains Mono', ui-monospace, monospace"
    font-size="11" fill="#334155" letter-spacing="2">
    c02ce1602d5bbb6ddfe93c6603d7f4e3 &#183; verified &#183; paid &#183; stellar ph bootcamp 2026
  </text>
</svg>
