<svg xmlns="http://www.w3.org/2000/svg" viewBox="0 0 96 64" shape-rendering="crispEdges" role="img" aria-label="Glitched coin">
  <defs>
    <style>
      .sh{fill:#78350F}.md{fill:#B45309}.hi{fill:#FBBF24}.gl{fill:#FEF3C7}.dg{fill:#EF4444}
    </style>
  </defs>
  <!-- Tilted/glitched coin fragment on left -->
  <g transform="translate(4, 8) rotate(-8 32 32)">
    <rect class="sh" x="20" y="4" width="4" height="4"/><rect class="sh" x="24" y="4" width="4" height="4"/><rect class="sh" x="28" y="4" width="4" height="4"/><rect class="sh" x="32" y="4" width="4" height="4"/><rect class="sh" x="36" y="4" width="4" height="4"/>
    <rect class="sh" x="12" y="8" width="4" height="4"/><rect class="md" x="16" y="8" width="4" height="4"/><rect class="md" x="20" y="8" width="4" height="4"/><rect class="md" x="24" y="8" width="4" height="4"/><rect class="md" x="28" y="8" width="4" height="4"/><rect class="md" x="32" y="8" width="4" height="4"/><rect class="md" x="36" y="8" width="4" height="4"/><rect class="sh" x="40" y="8" width="4" height="4"/>
    <rect class="sh" x="8" y="12" width="4" height="4"/><rect class="md" x="12" y="12" width="4" height="4"/><rect class="hi" x="16" y="12" width="4" height="4"/><rect class="gl" x="20" y="12" width="4" height="4"/><rect class="hi" x="24" y="12" width="4" height="4"/><rect class="hi" x="28" y="12" width="4" height="4"/><rect class="hi" x="32" y="12" width="4" height="4"/><rect class="hi" x="36" y="12" width="4" height="4"/><rect class="md" x="40" y="12" width="4" height="4"/><rect class="sh" x="44" y="12" width="4" height="4"/>
    <rect class="sh" x="8" y="16" width="4" height="4"/><rect class="md" x="12" y="16" width="4" height="4"/><rect class="hi" x="16" y="16" width="4" height="4"/><rect class="hi" x="20" y="16" width="4" height="4"/><rect class="dg" x="24" y="16" width="4" height="4"/><rect class="dg" x="28" y="16" width="4" height="4"/><rect class="hi" x="32" y="16" width="4" height="4"/><rect class="hi" x="36" y="16" width="4" height="4"/><rect class="md" x="40" y="16" width="4" height="4"/><rect class="sh" x="44" y="16" width="4" height="4"/>
    <rect class="sh" x="8" y="20" width="4" height="4"/><rect class="md" x="12" y="20" width="4" height="4"/><rect class="hi" x="16" y="20" width="4" height="4"/><rect class="dg" x="20" y="20" width="4" height="4"/><rect class="hi" x="24" y="20" width="4" height="4"/><rect class="hi" x="28" y="20" width="4" height="4"/><rect class="dg" x="32" y="20" width="4" height="4"/><rect class="hi" x="36" y="20" width="4" height="4"/><rect class="md" x="40" y="20" width="4" height="4"/><rect class="sh" x="44" y="20" width="4" height="4"/>
    <rect class="sh" x="8" y="24" width="4" height="4"/><rect class="md" x="12" y="24" width="4" height="4"/><rect class="hi" x="16" y="24" width="4" height="4"/><rect class="hi" x="20" y="24" width="4" height="4"/><rect class="hi" x="24" y="24" width="4" height="4"/><rect class="hi" x="28" y="24" width="4" height="4"/><rect class="hi" x="32" y="24" width="4" height="4"/><rect class="hi" x="36" y="24" width="4" height="4"/><rect class="md" x="40" y="24" width="4" height="4"/><rect class="sh" x="44" y="24" width="4" height="4"/>
    <rect class="sh" x="12" y="28" width="4" height="4"/><rect class="md" x="16" y="28" width="4" height="4"/><rect class="md" x="20" y="28" width="4" height="4"/><rect class="md" x="24" y="28" width="4" height="4"/><rect class="md" x="28" y="28" width="4" height="4"/><rect class="md" x="32" y="28" width="4" height="4"/><rect class="md" x="36" y="28" width="4" height="4"/><rect class="sh" x="40" y="28" width="4" height="4"/>
    <rect class="sh" x="16" y="32" width="4" height="4"/><rect class="sh" x="20" y="32" width="4" height="4"/><rect class="sh" x="24" y="32" width="4" height="4"/><rect class="sh" x="28" y="32" width="4" height="4"/><rect class="sh" x="32" y="32" width="4" height="4"/><rect class="sh" x="36" y="32" width="4" height="4"/>
  </g>
  <!-- Sparks on right -->
  <g class="dg">
    <rect x="72" y="12" width="3" height="3" fill="#EF4444"/>
    <rect x="80" y="20" width="3" height="3" fill="#F59E0B"/>
    <rect x="76" y="28" width="3" height="3" fill="#EF4444"/>
    <rect x="84" y="36" width="3" height="3" fill="#F59E0B"/>
    <rect x="72" y="44" width="3" height="3" fill="#EF4444"/>
  </g>
</svg>
