<svg xmlns="http://www.w3.org/2000/svg" viewBox="0 0 96 64" shape-rendering="crispEdges" role="img" aria-label="Magnifying glass over coin">
  <defs>
    <style>
      .sh{fill:#78350F}.md{fill:#B45309}.hi{fill:#FBBF24}.fr{fill:#94A3B8}.gls{fill:#F8FAFC;fill-opacity:0.15}.han{fill:#334155}
    </style>
  </defs>
  <!-- Small coin at back -->
  <g transform="translate(4, 16) scale(0.6)">
    <rect class="sh" x="20" y="4" width="4" height="4"/><rect class="sh" x="24" y="4" width="4" height="4"/><rect class="sh" x="28" y="4" width="4" height="4"/><rect class="sh" x="32" y="4" width="4" height="4"/><rect class="sh" x="36" y="4" width="4" height="4"/><rect class="sh" x="40" y="4" width="4" height="4"/>
    <rect class="sh" x="12" y="8" width="4" height="4"/><rect class="md" x="16" y="8" width="4" height="4"/><rect class="md" x="20" y="8" width="4" height="4"/><rect class="md" x="24" y="8" width="4" height="4"/><rect class="md" x="28" y="8" width="4" height="4"/><rect class="md" x="32" y="8" width="4" height="4"/><rect class="md" x="36" y="8" width="4" height="4"/><rect class="md" x="40" y="8" width="4" height="4"/><rect class="sh" x="44" y="8" width="4" height="4"/>
    <rect class="sh" x="8" y="12" width="4" height="4"/><rect class="hi" x="12" y="12" width="4" height="4"/><rect class="hi" x="16" y="12" width="4" height="4"/><rect class="hi" x="20" y="12" width="4" height="4"/><rect class="hi" x="24" y="12" width="4" height="4"/><rect class="hi" x="28" y="12" width="4" height="4"/><rect class="hi" x="32" y="12" width="4" height="4"/><rect class="hi" x="36" y="12" width="4" height="4"/><rect class="hi" x="40" y="12" width="4" height="4"/><rect class="hi" x="44" y="12" width="4" height="4"/><rect class="sh" x="48" y="12" width="4" height="4"/>
    <rect class="sh" x="8" y="16" width="4" height="4"/><rect class="hi" x="12" y="16" width="4" height="4"/><rect class="sh" x="16" y="16" width="4" height="4"/><rect class="sh" x="20" y="16" width="4" height="4"/><rect class="sh" x="24" y="16" width="4" height="4"/><rect class="sh" x="28" y="16" width="4" height="4"/><rect class="sh" x="32" y="16" width="4" height="4"/><rect class="hi" x="36" y="16" width="4" height="4"/><rect class="hi" x="40" y="16" width="4" height="4"/><rect class="hi" x="44" y="16" width="4" height="4"/><rect class="sh" x="48" y="16" width="4" height="4"/>
    <rect class="sh" x="8" y="20" width="4" height="4"/><rect class="hi" x="12" y="20" width="4" height="4"/><rect class="sh" x="16" y="20" width="4" height="4"/><rect class="hi" x="20" y="20" width="4" height="4"/><rect class="hi" x="24" y="20" width="4" height="4"/><rect class="hi" x="28" y="20" width="4" height="4"/><rect class="hi" x="32" y="20" width="4" height="4"/><rect class="hi" x="36" y="20" width="4" height="4"/><rect class="hi" x="40" y="20" width="4" height="4"/><rect class="hi" x="44" y="20" width="4" height="4"/><rect class="sh" x="48" y="20" width="4" height="4"/>
    <rect class="sh" x="8" y="24" width="4" height="4"/><rect class="hi" x="12" y="24" width="4" height="4"/><rect class="sh" x="16" y="24" width="4" height="4"/><rect class="sh" x="20" y="24" width="4" height="4"/><rect class="sh" x="24" y="24" width="4" height="4"/><rect class="sh" x="28" y="24" width="4" height="4"/><rect class="sh" x="32" y="24" width="4" height="4"/><rect class="hi" x="36" y="24" width="4" height="4"/><rect class="hi" x="40" y="24" width="4" height="4"/><rect class="hi" x="44" y="24" width="4" height="4"/><rect class="sh" x="48" y="24" width="4" height="4"/>
    <rect class="sh" x="8" y="28" width="4" height="4"/><rect class="hi" x="12" y="28" width="4" height="4"/><rect class="hi" x="16" y="28" width="4" height="4"/><rect class="hi" x="20" y="28" width="4" height="4"/><rect class="hi" x="24" y="28" width="4" height="4"/><rect class="sh" x="28" y="28" width="4" height="4"/><rect class="hi" x="32" y="28" width="4" height="4"/><rect class="hi" x="36" y="28" width="4" height="4"/><rect class="hi" x="40" y="28" width="4" height="4"/><rect class="hi" x="44" y="28" width="4" height="4"/><rect class="sh" x="48" y="28" width="4" height="4"/>
    <rect class="sh" x="12" y="32" width="4" height="4"/><rect class="hi" x="16" y="32" width="4" height="4"/><rect class="hi" x="20" y="32" width="4" height="4"/><rect class="hi" x="24" y="32" width="4" height="4"/><rect class="hi" x="28" y="32" width="4" height="4"/><rect class="hi" x="32" y="32" width="4" height="4"/><rect class="hi" x="36" y="32" width="4" height="4"/><rect class="hi" x="40" y="32" width="4" height="4"/><rect class="sh" x="44" y="32" width="4" height="4"/>
    <rect class="sh" x="16" y="36" width="4" height="4"/><rect class="sh" x="20" y="36" width="4" height="4"/><rect class="sh" x="24" y="36" width="4" height="4"/><rect class="sh" x="28" y="36" width="4" height="4"/><rect class="sh" x="32" y="36" width="4" height="4"/><rect class="sh" x="36" y="36" width="4" height="4"/><rect class="sh" x="40" y="36" width="4" height="4"/>
  </g>
  <!-- Magnifying glass frame -->
  <g>
    <!-- ring -->
    <rect class="fr" x="48" y="8" width="4" height="4"/><rect class="fr" x="52" y="8" width="4" height="4"/><rect class="fr" x="56" y="8" width="4" height="4"/><rect class="fr" x="60" y="8" width="4" height="4"/>
    <rect class="fr" x="44" y="12" width="4" height="4"/><rect class="gls" x="48" y="12" width="4" height="4"/><rect class="gls" x="52" y="12" width="4" height="4"/><rect class="gls" x="56" y="12" width="4" height="4"/><rect class="gls" x="60" y="12" width="4" height="4"/><rect class="fr" x="64" y="12" width="4" height="4"/>
    <rect class="fr" x="40" y="16" width="4" height="4"/><rect class="gls" x="44" y="16" width="20" height="4"/><rect class="fr" x="64" y="16" width="4" height="4"/><rect class="fr" x="68" y="16" width="4" height="4"/>
    <rect class="fr" x="40" y="20" width="4" height="4"/><rect class="gls" x="44" y="20" width="24" height="4"/><rect class="fr" x="68" y="20" width="4" height="4"/>
    <rect class="fr" x="40" y="24" width="4" height="4"/><rect class="gls" x="44" y="24" width="24" height="4"/><rect class="fr" x="68" y="24" width="4" height="4"/>
    <rect class="fr" x="44" y="28" width="4" height="4"/><rect class="gls" x="48" y="28" width="16" height="4"/><rect class="fr" x="64" y="28" width="4" height="4"/><rect class="fr" x="68" y="28" width="4" height="4"/>
    <rect class="fr" x="48" y="32" width="4" height="4"/><rect class="fr" x="52" y="32" width="4" height="4"/><rect class="fr" x="56" y="32" width="4" height="4"/><rect class="fr" x="60" y="32" width="4" height="4"/><rect class="fr" x="64" y="32" width="4" height="4"/>
    <!-- Handle -->
    <rect class="han" x="68" y="36" width="4" height="4"/>
    <rect class="han" x="72" y="40" width="4" height="4"/>
    <rect class="han" x="76" y="44" width="4" height="4"/>
    <rect class="han" x="80" y="48" width="4" height="4"/>
    <rect class="han" x="84" y="52" width="4" height="4"/>
  </g>
</svg>
