<svg xmlns="http://www.w3.org/2000/svg" viewBox="0 0 512 512" shape-rendering="crispEdges" role="img" aria-label="Stellaroid Earn pixel coin">
  <title>Stellaroid Earn</title>
  <defs>
    <style>
      .sh{fill:#78350F}
      .md{fill:#B45309}
      .hi{fill:#FBBF24}
      .gl{fill:#FEF3C7}
    </style>
    <!-- Shimmer: upper-left light source matching original glint pixel -->
    <radialGradient id="shimmer" cx="180" cy="155" r="210" gradientUnits="userSpaceOnUse">
      <stop offset="0%"   stop-color="#FEF3C7" stop-opacity="0.32"/>
      <stop offset="45%"  stop-color="#FBBF24" stop-opacity="0.07"/>
      <stop offset="100%" stop-color="#78350F" stop-opacity="0"/>
    </radialGradient>
    <!-- Soft ambient glow behind coin -->
    <filter id="ambientBlur" x="-25%" y="-25%" width="150%" height="150%">
      <feGaussianBlur stdDeviation="22"/>
    </filter>
  </defs>

  <!-- Ambient amber glow backdrop -->
  <circle cx="256" cy="240" r="215" fill="#D97706" opacity="0.20" filter="url(#ambientBlur)"/>

  <!--
    Pixel art coin — 8× scale (64px grid → 512px)

    S depth treatment (light from upper-left):
      .md  = S stroke body (raised letter surface — amber midtone)
      .sh  = cast shadow pixel, 1 block below horizontal bars
                               1 block right of vertical stems
      .gl  = extra highlight above top-left of S (faces the light source most directly)

    Before: all S strokes were flat .sh (dark), no depth cue.
    After:  stroke → .md, shadow offset → .sh, face highlights stay .hi / .gl
  -->
  <g transform="scale(8)">
    <!-- Row 1 — top coin rim -->
    <rect class="sh" x="20" y="4"  width="4" height="4"/>
    <rect class="sh" x="24" y="4"  width="4" height="4"/>
    <rect class="sh" x="28" y="4"  width="4" height="4"/>
    <rect class="sh" x="32" y="4"  width="4" height="4"/>
    <rect class="sh" x="36" y="4"  width="4" height="4"/>
    <rect class="sh" x="40" y="4"  width="4" height="4"/>

    <!-- Row 2 -->
    <rect class="sh" x="12" y="8"  width="4" height="4"/>
    <rect class="sh" x="16" y="8"  width="4" height="4"/>
    <rect class="md" x="20" y="8"  width="4" height="4"/>
    <rect class="md" x="24" y="8"  width="4" height="4"/>
    <rect class="md" x="28" y="8"  width="4" height="4"/>
    <rect class="md" x="32" y="8"  width="4" height="4"/>
    <rect class="md" x="36" y="8"  width="4" height="4"/>
    <rect class="md" x="40" y="8"  width="4" height="4"/>
    <rect class="sh" x="44" y="8"  width="4" height="4"/>
    <rect class="sh" x="48" y="8"  width="4" height="4"/>

    <!-- Row 3 — coin face; .gl at x=20 adds a second highlight spot
                 directly above the top-left of the S top bar -->
    <rect class="sh" x="8"  y="12" width="4" height="4"/>
    <rect class="md" x="12" y="12" width="4" height="4"/>
    <rect class="hi" x="16" y="12" width="4" height="4"/>
    <rect class="gl" x="20" y="12" width="4" height="4"/><!-- extra glint above S top-left -->
    <rect class="hi" x="24" y="12" width="4" height="4"/>
    <rect class="gl" x="28" y="12" width="4" height="4"/><!-- original specular -->
    <rect class="hi" x="32" y="12" width="4" height="4"/>
    <rect class="hi" x="36" y="12" width="4" height="4"/>
    <rect class="hi" x="40" y="12" width="4" height="4"/>
    <rect class="hi" x="44" y="12" width="4" height="4"/>
    <rect class="md" x="48" y="12" width="4" height="4"/>
    <rect class="sh" x="52" y="12" width="4" height="4"/>

    <!-- Row 4 — S top bar (stroke body → .md) -->
    <rect class="sh" x="8"  y="16" width="4" height="4"/>
    <rect class="md" x="12" y="16" width="4" height="4"/>
    <rect class="hi" x="16" y="16" width="4" height="4"/>
    <rect class="md" x="20" y="16" width="4" height="4"/><!-- S stroke -->
    <rect class="md" x="24" y="16" width="4" height="4"/><!-- S stroke -->
    <rect class="md" x="28" y="16" width="4" height="4"/><!-- S stroke -->
    <rect class="md" x="32" y="16" width="4" height="4"/><!-- S stroke -->
    <rect class="md" x="36" y="16" width="4" height="4"/><!-- S stroke -->
    <rect class="hi" x="40" y="16" width="4" height="4"/>
    <rect class="hi" x="44" y="16" width="4" height="4"/>
    <rect class="md" x="48" y="16" width="4" height="4"/>
    <rect class="sh" x="52" y="16" width="4" height="4"/>

    <!-- Row 5 — S left stem (.md) + cast shadow (.sh) below top bar at x=24–36 -->
    <rect class="sh" x="4"  y="20" width="4" height="4"/>
    <rect class="md" x="8"  y="20" width="4" height="4"/>
    <rect class="hi" x="12" y="20" width="4" height="4"/>
    <rect class="hi" x="16" y="20" width="4" height="4"/>
    <rect class="md" x="20" y="20" width="4" height="4"/><!-- S left stem -->
    <rect class="sh" x="24" y="20" width="4" height="4"/><!-- shadow below top bar -->
    <rect class="sh" x="28" y="20" width="4" height="4"/><!-- shadow below top bar -->
    <rect class="sh" x="32" y="20" width="4" height="4"/><!-- shadow below top bar -->
    <rect class="sh" x="36" y="20" width="4" height="4"/><!-- shadow below top bar -->
    <rect class="hi" x="40" y="20" width="4" height="4"/>
    <rect class="hi" x="44" y="20" width="4" height="4"/>
    <rect class="md" x="48" y="20" width="4" height="4"/>
    <rect class="md" x="52" y="20" width="4" height="4"/>
    <rect class="sh" x="56" y="20" width="4" height="4"/>

    <!-- Row 6 — S left stem (.md) + cast shadow (.sh) right of left stem at x=24 -->
    <rect class="sh" x="4"  y="24" width="4" height="4"/>
    <rect class="md" x="8"  y="24" width="4" height="4"/>
    <rect class="hi" x="12" y="24" width="4" height="4"/>
    <rect class="hi" x="16" y="24" width="4" height="4"/>
    <rect class="md" x="20" y="24" width="4" height="4"/><!-- S left stem -->
    <rect class="sh" x="24" y="24" width="4" height="4"/><!-- shadow right of left stem -->
    <rect class="hi" x="28" y="24" width="4" height="4"/>
    <rect class="hi" x="32" y="24" width="4" height="4"/>
    <rect class="hi" x="36" y="24" width="4" height="4"/>
    <rect class="hi" x="40" y="24" width="4" height="4"/>
    <rect class="hi" x="44" y="24" width="4" height="4"/>
    <rect class="md" x="48" y="24" width="4" height="4"/>
    <rect class="md" x="52" y="24" width="4" height="4"/>
    <rect class="sh" x="56" y="24" width="4" height="4"/>

    <!-- Row 7 — S middle bar (stroke body → .md) -->
    <rect class="sh" x="4"  y="28" width="4" height="4"/>
    <rect class="md" x="8"  y="28" width="4" height="4"/>
    <rect class="hi" x="12" y="28" width="4" height="4"/>
    <rect class="hi" x="16" y="28" width="4" height="4"/>
    <rect class="md" x="20" y="28" width="4" height="4"/><!-- S stroke -->
    <rect class="md" x="24" y="28" width="4" height="4"/><!-- S stroke -->
    <rect class="md" x="28" y="28" width="4" height="4"/><!-- S stroke -->
    <rect class="md" x="32" y="28" width="4" height="4"/><!-- S stroke -->
    <rect class="md" x="36" y="28" width="4" height="4"/><!-- S stroke -->
    <rect class="hi" x="40" y="28" width="4" height="4"/>
    <rect class="hi" x="44" y="28" width="4" height="4"/>
    <rect class="md" x="48" y="28" width="4" height="4"/>
    <rect class="md" x="52" y="28" width="4" height="4"/>
    <rect class="sh" x="56" y="28" width="4" height="4"/>

    <!-- Row 8 — cast shadow below middle bar, tapered: sh sh sh md → right stem md → bright face
         x=32 tapers to .md so shadow doesn't sandwich the right stem on both sides -->
    <rect class="sh" x="4"  y="32" width="4" height="4"/>
    <rect class="md" x="8"  y="32" width="4" height="4"/>
    <rect class="hi" x="12" y="32" width="4" height="4"/>
    <rect class="hi" x="16" y="32" width="4" height="4"/>
    <rect class="sh" x="20" y="32" width="4" height="4"/><!-- shadow below middle bar -->
    <rect class="sh" x="24" y="32" width="4" height="4"/><!-- shadow below middle bar -->
    <rect class="sh" x="28" y="32" width="4" height="4"/><!-- shadow below middle bar -->
    <rect class="md" x="32" y="32" width="4" height="4"/><!-- shadow taper — connects into right stem -->
    <rect class="md" x="36" y="32" width="4" height="4"/><!-- S right stem -->
    <rect class="hi" x="40" y="32" width="4" height="4"/><!-- restored: no isolated shadow pixel -->
    <rect class="hi" x="44" y="32" width="4" height="4"/>
    <rect class="md" x="48" y="32" width="4" height="4"/>
    <rect class="md" x="52" y="32" width="4" height="4"/>
    <rect class="sh" x="56" y="32" width="4" height="4"/>

    <!-- Row 9 — S right stem (.md); no isolated shadow pixel at x=40 -->
    <rect class="sh" x="4"  y="36" width="4" height="4"/>
    <rect class="md" x="8"  y="36" width="4" height="4"/>
    <rect class="hi" x="12" y="36" width="4" height="4"/>
    <rect class="hi" x="16" y="36" width="4" height="4"/>
    <rect class="hi" x="20" y="36" width="4" height="4"/>
    <rect class="hi" x="24" y="36" width="4" height="4"/>
    <rect class="hi" x="28" y="36" width="4" height="4"/>
    <rect class="hi" x="32" y="36" width="4" height="4"/>
    <rect class="md" x="36" y="36" width="4" height="4"/><!-- S right stem -->
    <rect class="hi" x="40" y="36" width="4" height="4"/><!-- restored: no isolated shadow -->
    <rect class="hi" x="44" y="36" width="4" height="4"/>
    <rect class="md" x="48" y="36" width="4" height="4"/>
    <rect class="md" x="52" y="36" width="4" height="4"/>
    <rect class="sh" x="56" y="36" width="4" height="4"/>

    <!-- Row 10 — S bottom bar (stroke body → .md) -->
    <rect class="sh" x="8"  y="40" width="4" height="4"/>
    <rect class="md" x="12" y="40" width="4" height="4"/>
    <rect class="hi" x="16" y="40" width="4" height="4"/>
    <rect class="md" x="20" y="40" width="4" height="4"/><!-- S stroke -->
    <rect class="md" x="24" y="40" width="4" height="4"/><!-- S stroke -->
    <rect class="md" x="28" y="40" width="4" height="4"/><!-- S stroke -->
    <rect class="md" x="32" y="40" width="4" height="4"/><!-- S stroke -->
    <rect class="md" x="36" y="40" width="4" height="4"/><!-- S stroke -->
    <rect class="hi" x="40" y="40" width="4" height="4"/>
    <rect class="hi" x="44" y="40" width="4" height="4"/>
    <rect class="md" x="48" y="40" width="4" height="4"/>
    <rect class="md" x="52" y="40" width="4" height="4"/>
    <rect class="sh" x="56" y="40" width="4" height="4"/>

    <!-- Row 11 — coin face; no shadow here — bottom bar is too close to the rim,
         .md shadow would blend with the .md rim at y=48 (three identical rows) -->
    <rect class="sh" x="8"  y="44" width="4" height="4"/>
    <rect class="md" x="12" y="44" width="4" height="4"/>
    <rect class="hi" x="16" y="44" width="4" height="4"/>
    <rect class="hi" x="20" y="44" width="4" height="4"/>
    <rect class="hi" x="24" y="44" width="4" height="4"/>
    <rect class="hi" x="28" y="44" width="4" height="4"/>
    <rect class="hi" x="32" y="44" width="4" height="4"/>
    <rect class="hi" x="36" y="44" width="4" height="4"/>
    <rect class="hi" x="40" y="44" width="4" height="4"/>
    <rect class="hi" x="44" y="44" width="4" height="4"/>
    <rect class="md" x="48" y="44" width="4" height="4"/>
    <rect class="sh" x="52" y="44" width="4" height="4"/>

    <!-- Row 12 — bottom coin rim -->
    <rect class="sh" x="8"  y="48" width="4" height="4"/>
    <rect class="sh" x="12" y="48" width="4" height="4"/>
    <rect class="md" x="16" y="48" width="4" height="4"/>
    <rect class="md" x="20" y="48" width="4" height="4"/>
    <rect class="md" x="24" y="48" width="4" height="4"/>
    <rect class="md" x="28" y="48" width="4" height="4"/>
    <rect class="md" x="32" y="48" width="4" height="4"/>
    <rect class="md" x="36" y="48" width="4" height="4"/>
    <rect class="md" x="40" y="48" width="4" height="4"/>
    <rect class="md" x="44" y="48" width="4" height="4"/>
    <rect class="sh" x="48" y="48" width="4" height="4"/>
    <rect class="sh" x="52" y="48" width="4" height="4"/>

    <!-- Row 13 — bottom coin rim shadow -->
    <rect class="sh" x="12" y="52" width="4" height="4"/>
    <rect class="sh" x="16" y="52" width="4" height="4"/>
    <rect class="sh" x="20" y="52" width="4" height="4"/>
    <rect class="sh" x="24" y="52" width="4" height="4"/>
    <rect class="sh" x="28" y="52" width="4" height="4"/>
    <rect class="sh" x="32" y="52" width="4" height="4"/>
    <rect class="sh" x="36" y="52" width="4" height="4"/>
    <rect class="sh" x="40" y="52" width="4" height="4"/>
    <rect class="sh" x="44" y="52" width="4" height="4"/>
    <rect class="sh" x="48" y="52" width="4" height="4"/>
  </g>

  <!-- Shimmer overlay — upper-left light source, anchored to original glint pixel position -->
  <circle cx="256" cy="240" r="230" fill="url(#shimmer)"/>
</svg>
