<svg xmlns="http://www.w3.org/2000/svg" viewBox="0 0 1200 630" role="img">
  <defs>
    <linearGradient id="bg" x1="0" y1="0" x2="1" y2="1">
      <stop offset="0%" stop-color="#0F172A"/>
      <stop offset="100%" stop-color="#1E293B"/>
    </linearGradient>
    <!-- Horizontal accent: amber → purple -->
    <linearGradient id="accent" x1="0" y1="0" x2="1" y2="0">
      <stop offset="0%" stop-color="#F59E0B"/>
      <stop offset="100%" stop-color="#8B5CF6"/>
    </linearGradient>
    <!-- Vertical accent: amber (top) → purple (bottom) -->
    <linearGradient id="accentV" x1="0" y1="0" x2="0" y2="1">
      <stop offset="0%" stop-color="#F59E0B"/>
      <stop offset="100%" stop-color="#8B5CF6"/>
    </linearGradient>
    <style>
      .sh{fill:#78350F}.md{fill:#B45309}.hi{fill:#FBBF24}.gl{fill:#FEF3C7}
    </style>
  </defs>

  <!-- Background -->
  <rect width="1200" height="630" fill="url(#bg)"/>

  <!-- Dot grid: subtle background texture -->
  <g fill="#334155" opacity="0.45" shape-rendering="crispEdges">
    <!-- Row y=80 -->
    <circle cx="240" cy="80" r="2"/><circle cx="400" cy="80" r="2"/><circle cx="560" cy="80" r="2"/>
    <circle cx="720" cy="80" r="2"/><circle cx="880" cy="80" r="2"/><circle cx="1040" cy="80" r="2"/>
    <!-- Row y=160 -->
    <circle cx="160" cy="160" r="2"/><circle cx="320" cy="160" r="2"/><circle cx="480" cy="160" r="2"/>
    <circle cx="640" cy="160" r="2"/><circle cx="800" cy="160" r="2"/><circle cx="960" cy="160" r="2"/><circle cx="1120" cy="160" r="2"/>
    <!-- Row y=400 -->
    <circle cx="160" cy="400" r="2"/><circle cx="320" cy="400" r="2"/><circle cx="480" cy="400" r="2"/>
    <circle cx="640" cy="400" r="2"/><circle cx="800" cy="400" r="2"/><circle cx="960" cy="400" r="2"/><circle cx="1120" cy="400" r="2"/>
    <!-- Row y=480 -->
    <circle cx="240" cy="480" r="2"/><circle cx="400" cy="480" r="2"/><circle cx="560" cy="480" r="2"/>
    <circle cx="720" cy="480" r="2"/><circle cx="880" cy="480" r="2"/><circle cx="1040" cy="480" r="2"/>
    <!-- Row y=560 -->
    <circle cx="160" cy="560" r="2"/><circle cx="400" cy="560" r="2"/><circle cx="640" cy="560" r="2"/>
    <circle cx="880" cy="560" r="2"/><circle cx="1040" cy="560" r="2"/>
  </g>

  <!-- ── EDGES ─────────────────────────────────────────────── -->
  <!-- Top ribbon -->
  <rect x="0" y="0" width="1200" height="5" fill="url(#accent)"/>
  <!-- Bottom ribbon -->
  <rect x="0" y="625" width="1200" height="5" fill="url(#accent)"/>
  <!-- Left bar -->
  <rect x="0" y="0" width="5" height="630" fill="url(#accentV)"/>
  <!-- Right bar -->
  <rect x="1195" y="0" width="5" height="630" fill="url(#accentV)"/>
  <!-- Inset frame (1px slate, sits just inside the gradient bars) -->
  <rect x="18" y="18" width="1164" height="594" fill="none" stroke="#334155" stroke-width="1"/>
  <!-- Corner accent squares (pixel art feel, at inset frame corners) -->
  <rect x="16" y="16" width="6" height="6" fill="#F59E0B"/>
  <rect x="1178" y="16" width="6" height="6" fill="#8B5CF6"/>
  <rect x="16" y="608" width="6" height="6" fill="#8B5CF6"/>
  <rect x="1178" y="608" width="6" height="6" fill="#F59E0B"/>

  <!-- Hash motif strip (top) — JetBrains Mono -->
  <text x="80" y="100"
    font-family="'JetBrains Mono', ui-monospace, monospace"
    font-size="15" fill="#334155" letter-spacing="3">
    sha256 · e3b0c44298fc1c149afbf4c8996fb924 27ae41e4649b934ca495991b7852b855
  </text>

  <!-- Hash motif strip (bottom) — JetBrains Mono -->
  <text x="80" y="538"
    font-family="'JetBrains Mono', ui-monospace, monospace"
    font-size="13" fill="#334155" letter-spacing="2">
    0x1e8078e36333023c46f11a0bd990f97b · verified · paid · stellar testnet
  </text>

  <!-- Coin logo (pixel art, scale 5.5×) -->
  <g transform="translate(50, 150) scale(5.5)" shape-rendering="crispEdges">
    <rect class="sh" x="20" y="4" width="4" height="4"/><rect class="sh" x="24" y="4" width="4" height="4"/><rect class="sh" x="28" y="4" width="4" height="4"/><rect class="sh" x="32" y="4" width="4" height="4"/><rect class="sh" x="36" y="4" width="4" height="4"/><rect class="sh" x="40" y="4" width="4" height="4"/>
    <rect class="sh" x="12" y="8" width="4" height="4"/><rect class="sh" x="16" y="8" width="4" height="4"/><rect class="md" x="20" y="8" width="4" height="4"/><rect class="md" x="24" y="8" width="4" height="4"/><rect class="md" x="28" y="8" width="4" height="4"/><rect class="md" x="32" y="8" width="4" height="4"/><rect class="md" x="36" y="8" width="4" height="4"/><rect class="md" x="40" y="8" width="4" height="4"/><rect class="sh" x="44" y="8" width="4" height="4"/><rect class="sh" x="48" y="8" width="4" height="4"/>
    <rect class="sh" x="8" y="12" width="4" height="4"/><rect class="md" x="12" y="12" width="4" height="4"/><rect class="hi" x="16" y="12" width="4" height="4"/><rect class="hi" x="20" y="12" width="4" height="4"/><rect class="hi" x="24" y="12" width="4" height="4"/><rect class="gl" x="28" y="12" width="4" height="4"/><rect class="hi" x="32" y="12" width="4" height="4"/><rect class="hi" x="36" y="12" width="4" height="4"/><rect class="hi" x="40" y="12" width="4" height="4"/><rect class="hi" x="44" y="12" width="4" height="4"/><rect class="md" x="48" y="12" width="4" height="4"/><rect class="sh" x="52" y="12" width="4" height="4"/>
    <rect class="sh" x="8" y="16" width="4" height="4"/><rect class="md" x="12" y="16" width="4" height="4"/><rect class="hi" x="16" y="16" width="4" height="4"/><rect class="sh" x="20" y="16" width="4" height="4"/><rect class="sh" x="24" y="16" width="4" height="4"/><rect class="sh" x="28" y="16" width="4" height="4"/><rect class="sh" x="32" y="16" width="4" height="4"/><rect class="sh" x="36" y="16" width="4" height="4"/><rect class="hi" x="40" y="16" width="4" height="4"/><rect class="hi" x="44" y="16" width="4" height="4"/><rect class="md" x="48" y="16" width="4" height="4"/><rect class="sh" x="52" y="16" width="4" height="4"/>
    <rect class="sh" x="4" y="20" width="4" height="4"/><rect class="md" x="8" y="20" width="4" height="4"/><rect class="hi" x="12" y="20" width="4" height="4"/><rect class="hi" x="16" y="20" width="4" height="4"/><rect class="sh" x="20" y="20" width="4" height="4"/><rect class="hi" x="24" y="20" width="4" height="4"/><rect class="hi" x="28" y="20" width="4" height="4"/><rect class="hi" x="32" y="20" width="4" height="4"/><rect class="hi" x="36" y="20" width="4" height="4"/><rect class="hi" x="40" y="20" width="4" height="4"/><rect class="hi" x="44" y="20" width="4" height="4"/><rect class="md" x="48" y="20" width="4" height="4"/><rect class="md" x="52" y="20" width="4" height="4"/><rect class="sh" x="56" y="20" width="4" height="4"/>
    <rect class="sh" x="4" y="24" width="4" height="4"/><rect class="md" x="8" y="24" width="4" height="4"/><rect class="hi" x="12" y="24" width="4" height="4"/><rect class="hi" x="16" y="24" width="4" height="4"/><rect class="sh" x="20" y="24" width="4" height="4"/><rect class="hi" x="24" y="24" width="4" height="4"/><rect class="hi" x="28" y="24" width="4" height="4"/><rect class="hi" x="32" y="24" width="4" height="4"/><rect class="hi" x="36" y="24" width="4" height="4"/><rect class="hi" x="40" y="24" width="4" height="4"/><rect class="hi" x="44" y="24" width="4" height="4"/><rect class="md" x="48" y="24" width="4" height="4"/><rect class="md" x="52" y="24" width="4" height="4"/><rect class="sh" x="56" y="24" width="4" height="4"/>
    <rect class="sh" x="4" y="28" width="4" height="4"/><rect class="md" x="8" y="28" width="4" height="4"/><rect class="hi" x="12" y="28" width="4" height="4"/><rect class="hi" x="16" y="28" width="4" height="4"/><rect class="sh" x="20" y="28" width="4" height="4"/><rect class="sh" x="24" y="28" width="4" height="4"/><rect class="sh" x="28" y="28" width="4" height="4"/><rect class="sh" x="32" y="28" width="4" height="4"/><rect class="sh" x="36" y="28" width="4" height="4"/><rect class="hi" x="40" y="28" width="4" height="4"/><rect class="hi" x="44" y="28" width="4" height="4"/><rect class="md" x="48" y="28" width="4" height="4"/><rect class="md" x="52" y="28" width="4" height="4"/><rect class="sh" x="56" y="28" width="4" height="4"/>
    <rect class="sh" x="4" y="32" width="4" height="4"/><rect class="md" x="8" y="32" width="4" height="4"/><rect class="hi" x="12" y="32" width="4" height="4"/><rect class="hi" x="16" y="32" width="4" height="4"/><rect class="hi" x="20" y="32" width="4" height="4"/><rect class="hi" x="24" y="32" width="4" height="4"/><rect class="hi" x="28" y="32" width="4" height="4"/><rect class="hi" x="32" y="32" width="4" height="4"/><rect class="sh" x="36" y="32" width="4" height="4"/><rect class="hi" x="40" y="32" width="4" height="4"/><rect class="hi" x="44" y="32" width="4" height="4"/><rect class="md" x="48" y="32" width="4" height="4"/><rect class="md" x="52" y="32" width="4" height="4"/><rect class="sh" x="56" y="32" width="4" height="4"/>
    <rect class="sh" x="4" y="36" width="4" height="4"/><rect class="md" x="8" y="36" width="4" height="4"/><rect class="hi" x="12" y="36" width="4" height="4"/><rect class="hi" x="16" y="36" width="4" height="4"/><rect class="hi" x="20" y="36" width="4" height="4"/><rect class="hi" x="24" y="36" width="4" height="4"/><rect class="hi" x="28" y="36" width="4" height="4"/><rect class="hi" x="32" y="36" width="4" height="4"/><rect class="sh" x="36" y="36" width="4" height="4"/><rect class="hi" x="40" y="36" width="4" height="4"/><rect class="hi" x="44" y="36" width="4" height="4"/><rect class="md" x="48" y="36" width="4" height="4"/><rect class="md" x="52" y="36" width="4" height="4"/><rect class="sh" x="56" y="36" width="4" height="4"/>
    <rect class="sh" x="8" y="40" width="4" height="4"/><rect class="md" x="12" y="40" width="4" height="4"/><rect class="hi" x="16" y="40" width="4" height="4"/><rect class="sh" x="20" y="40" width="4" height="4"/><rect class="sh" x="24" y="40" width="4" height="4"/><rect class="sh" x="28" y="40" width="4" height="4"/><rect class="sh" x="32" y="40" width="4" height="4"/><rect class="sh" x="36" y="40" width="4" height="4"/><rect class="hi" x="40" y="40" width="4" height="4"/><rect class="hi" x="44" y="40" width="4" height="4"/><rect class="md" x="48" y="40" width="4" height="4"/><rect class="md" x="52" y="40" width="4" height="4"/><rect class="sh" x="56" y="40" width="4" height="4"/>
    <rect class="sh" x="8" y="44" width="4" height="4"/><rect class="md" x="12" y="44" width="4" height="4"/><rect class="hi" x="16" y="44" width="4" height="4"/><rect class="hi" x="20" y="44" width="4" height="4"/><rect class="hi" x="24" y="44" width="4" height="4"/><rect class="hi" x="28" y="44" width="4" height="4"/><rect class="hi" x="32" y="44" width="4" height="4"/><rect class="hi" x="36" y="44" width="4" height="4"/><rect class="hi" x="40" y="44" width="4" height="4"/><rect class="hi" x="44" y="44" width="4" height="4"/><rect class="md" x="48" y="44" width="4" height="4"/><rect class="sh" x="52" y="44" width="4" height="4"/>
    <rect class="sh" x="8" y="48" width="4" height="4"/><rect class="sh" x="12" y="48" width="4" height="4"/><rect class="md" x="16" y="48" width="4" height="4"/><rect class="md" x="20" y="48" width="4" height="4"/><rect class="md" x="24" y="48" width="4" height="4"/><rect class="md" x="28" y="48" width="4" height="4"/><rect class="md" x="32" y="48" width="4" height="4"/><rect class="md" x="36" y="48" width="4" height="4"/><rect class="md" x="40" y="48" width="4" height="4"/><rect class="md" x="44" y="48" width="4" height="4"/><rect class="sh" x="48" y="48" width="4" height="4"/><rect class="sh" x="52" y="48" width="4" height="4"/>
    <rect class="sh" x="12" y="52" width="4" height="4"/><rect class="sh" x="16" y="52" width="4" height="4"/><rect class="sh" x="20" y="52" width="4" height="4"/><rect class="sh" x="24" y="52" width="4" height="4"/><rect class="sh" x="28" y="52" width="4" height="4"/><rect class="sh" x="32" y="52" width="4" height="4"/><rect class="sh" x="36" y="52" width="4" height="4"/><rect class="sh" x="40" y="52" width="4" height="4"/><rect class="sh" x="44" y="52" width="4" height="4"/><rect class="sh" x="48" y="52" width="4" height="4"/>
  </g>

  <!-- Text block -->
  <!-- Title — Orbitron (heading font) -->
  <text x="430" y="257"
    font-family="'Orbitron', system-ui, sans-serif"
    font-size="78" font-weight="700" letter-spacing="-1"
    fill="#F8FAFC">Stellaroid Earn</text>

  <!-- Divider line under title -->
  <rect x="430" y="276" width="720" height="1" fill="#334155"/>

  <!-- Subtitle — Exo 2 (sans font) -->
  <text x="430" y="326"
    font-family="'Exo 2', system-ui, sans-serif"
    font-size="34" font-weight="500"
    fill="#94A3B8">On-chain credential registry.</text>
  <text x="430" y="372"
    font-family="'Exo 2', system-ui, sans-serif"
    font-size="34" font-weight="500"
    fill="#94A3B8">Employer verifies, grad gets paid in XLM.</text>

  <!-- Tag strip — JetBrains Mono -->
  <rect x="430" y="428" width="12" height="12" fill="url(#accent)"/>
  <text x="454" y="440"
    font-family="'JetBrains Mono', ui-monospace, monospace"
    font-size="20" font-weight="600" letter-spacing="2"
    fill="#F59E0B">STELLAR TESTNET · SOROBAN · FREIGHTER</text>
</svg>
